<?xml version="1.0" encoding="UTF-8" standalone="no"?>
<!DOCTYPE svg PUBLIC "-//W3C//DTD SVG 1.1//EN" "http://www.w3.org/Graphics/SVG/1.1/DTD/svg11.dtd">
<svg width="100%" height="100%" viewBox="0 0 10644 4500" version="1.1" xmlns="http://www.w3.org/2000/svg" xmlns:xlink="http://www.w3.org/1999/xlink" xml:space="preserve" xmlns:serif="http://www.serif.com/" style="fill-rule:evenodd;clip-rule:evenodd;stroke-linejoin:round;stroke-miterlimit:2;">
    <g transform="matrix(1,0,0,1,-0.00333333,0.00583333)">
        <g transform="matrix(8.33333,0,0,8.33333,0,0)">
            <g transform="matrix(1,0,0,1,112.065,116.602)">
                <path d="M0,4.705L0,-36.963C0,-48.388 -5.713,-54.773 -15.458,-54.773C-24.866,-54.773 -30.579,-48.388 -30.579,-36.963L-30.579,4.705L0,4.705ZM-15.458,-116.603C36.627,-116.603 65.19,-88.04 65.19,-38.643L65.19,121.308L0,121.308L0,58.135L-30.579,58.135L-30.579,121.308L-95.769,121.308L-95.769,-38.643C-95.769,-88.04 -67.207,-116.603 -15.458,-116.603" style="fill-rule:nonzero;"/>
            </g>
            <g transform="matrix(1,0,0,1,198.426,81.3195)">
                <path d="M0,81.992L0,-77.96L65.862,-77.96L65.862,80.984C65.862,91.737 70.903,98.121 80.648,98.121C90.392,98.121 95.433,91.737 95.433,80.984L95.433,-77.96L160.96,-77.96L160.96,81.992C160.96,131.388 132.397,159.952 80.648,159.952C28.899,159.952 0,131.388 0,81.992" style="fill-rule:nonzero;"/>
            </g>
            <g transform="matrix(1,0,0,1,375.177,119.963)">
                <path d="M0,1.344C0,-73.255 48.725,-119.964 121.98,-119.964C143.822,-119.964 162.976,-115.931 180.45,-109.883L180.45,-42.341C160.96,-51.749 141.47,-55.781 125.34,-55.781C92.409,-55.781 66.871,-38.644 66.871,1.008C66.871,40.66 90.729,59.477 122.988,59.477C128.029,59.477 133.406,59.142 139.118,58.133L139.118,29.234L98.794,29.234L98.794,-25.202L199.94,-25.202L199.94,105.178C174.065,116.939 145.167,121.308 121.644,121.308C44.693,121.308 0,73.591 0,1.344" style="fill-rule:nonzero;"/>
            </g>
            <g transform="matrix(1,0,0,1,593.935,81.3195)">
                <path d="M0,81.992L0,-77.96L65.862,-77.96L65.862,80.984C65.862,91.737 70.902,98.121 80.647,98.121C90.392,98.121 95.433,91.737 95.433,80.984L95.433,-77.96L160.959,-77.96L160.959,81.992C160.959,131.388 132.397,159.952 80.647,159.952C28.898,159.952 0,131.388 0,81.992" style="fill-rule:nonzero;"/>
            </g>
            <g transform="matrix(1,0,0,1,772.03,8.7364)">
                <path d="M0,223.798L0,150.543C19.153,162.976 33.94,169.36 44.356,169.36C51.749,169.36 57.462,166 57.462,157.599C57.462,151.551 54.437,146.51 48.388,140.125L24.53,115.259C6.048,98.121 -1.008,77.96 -1.008,57.462C-1.008,15.793 27.555,-8.737 70.567,-8.737C83.336,-8.737 97.786,-6.721 112.907,-1.68L112.907,59.814C98.121,52.085 86.024,46.372 77.287,46.372C69.894,46.372 65.526,49.733 65.526,56.454C65.526,60.822 67.542,64.854 73.255,70.903L95.769,94.761C118.284,116.603 127.356,135.757 127.356,161.296C127.356,205.988 98.458,232.535 51.412,232.535C34.611,232.535 15.121,229.174 0,223.798" style="fill-rule:nonzero;"/>
            </g>
            <g transform="matrix(1,0,0,1,925.599,176.753)">
                <path d="M0,-112.235L-27.219,-112.235L-27.219,-173.393L92.745,-173.393L92.745,-112.235L65.526,-112.235L65.526,61.158L0,61.158L0,-112.235Z" style="fill-rule:nonzero;"/>
            </g>
            <g transform="matrix(1,0,0,1,1138.98,67.2065)">
                <path d="M0,106.858C29.235,106.858 49.733,85.016 49.733,53.428C49.733,21.842 29.235,-0 0,-0C-29.235,-0 -49.396,21.842 -49.396,53.428C-49.396,84.68 -29.235,106.858 0,106.858M-120.972,53.428C-120.972,-19.154 -72.919,-67.207 -0.336,-67.207C72.583,-67.207 120.972,-19.154 120.972,53.428C120.972,125.676 72.583,174.065 -0.336,174.065C-72.919,174.065 -120.972,126.012 -120.972,53.428" style="fill-rule:nonzero;"/>
            </g>
            <g transform="matrix(1,0,0,1,68.2144,424.374)">
                <path d="M0,-10.081C17.138,-10.081 27.219,-18.482 27.219,-38.644C27.219,-58.806 16.802,-67.543 0,-67.543L-2.688,-67.543L-2.688,-10.081L0,-10.081ZM-68.214,-122.316L8.065,-122.316C59.478,-122.316 91.401,-90.729 91.401,-38.98C91.401,12.433 59.814,44.02 8.065,44.02L-2.688,44.02L-2.688,112.235L-68.214,112.235L-68.214,-122.316Z" style="fill-rule:nonzero;"/>
            </g>
            <g transform="matrix(1,0,0,1,0,298.698)">
                <rect x="173.394" y="3.36" width="65.526" height="234.551"/>
            </g>
            <g transform="matrix(1,0,0,1,262.439,536.609)">
                <path d="M0,-234.551L78.631,-234.551L119.964,-92.409L120.636,-92.409L118.62,-234.551L173.057,-234.551L173.057,0L94.761,0L53.429,-142.478L52.757,-142.478L54.773,0L0,0L0,-234.551Z" style="fill-rule:nonzero;"/>
            </g>
            <g transform="matrix(1,0,0,1,554.453,392.45)">
                <path d="M0,53.767L-29.906,53.767L-29.906,144.159L-95.433,144.159L-95.433,-90.392L-29.906,-90.392L-29.906,-6.719L0,-6.719L0,-90.392L65.526,-90.392L65.526,144.159L0,144.159L0,53.767Z" style="fill-rule:nonzero;"/>
            </g>
            <g transform="matrix(1,0,0,1,643.498,536.609)">
                <path d="M0,-234.551L113.916,-234.551L113.916,-175.745L65.526,-175.745L65.526,-144.83L104.843,-144.83L104.843,-92.073L65.526,-92.073L65.526,-58.806L114.588,-58.806L114.588,0L0,0L0,-234.551Z" style="fill-rule:nonzero;"/>
            </g>
            <g transform="matrix(1,0,0,1,0,298.698)">
                <rect x="777.912" y="3.36" width="65.526" height="234.551"/>
            </g>
            <g transform="matrix(1,0,0,1,943.91,447.224)">
                <path d="M0,-55.781C12.097,-55.781 18.818,-63.51 18.818,-75.271C18.818,-87.032 12.097,-94.425 0,-94.425L-11.425,-94.425L-11.425,-55.781L0,-55.781ZM-76.952,-145.166L15.793,-145.166C57.798,-145.166 83.336,-122.316 83.336,-82.664C83.336,-53.765 68.886,-35.62 48.389,-28.226L48.389,-27.555C70.567,-22.178 82.328,-5.041 82.328,23.858L82.328,89.385L16.13,89.385L16.13,22.515C16.13,5.041 10.753,-1.344 -2.352,-1.344L-11.425,-1.344L-11.425,89.385L-76.952,89.385L-76.952,-145.166Z" style="fill-rule:nonzero;"/>
            </g>
            <g transform="matrix(1,0,0,1,1156.28,365.904)">
                <path d="M0,106.859C29.235,106.859 49.733,85.016 49.733,53.429C49.733,21.843 29.235,0 0,0C-29.235,0 -49.396,21.843 -49.396,53.429C-49.396,84.681 -29.235,106.859 0,106.859M-120.972,53.429C-120.972,-19.153 -72.919,-67.206 -0.336,-67.206C72.583,-67.206 120.972,-19.153 120.972,53.429C120.972,125.677 72.583,174.065 -0.336,174.065C-72.919,174.065 -120.972,126.012 -120.972,53.429" style="fill-rule:nonzero;"/>
            </g>
        </g>
    </g>
</svg>
